<?xml version="1.0" standalone="no"?>
<!DOCTYPE svg PUBLIC "-//W3C//DTD SVG 20010904//EN"
 "http://www.w3.org/TR/2001/REC-SVG-20010904/DTD/svg10.dtd">
<svg version="1.0" xmlns="http://www.w3.org/2000/svg"
 width="112.000000pt" height="45.000000pt" viewBox="0 0 423.000000 268.000000"
 preserveAspectRatio="xMidYMid meet">

<g transform="translate(0.000000,268.000000) scale(0.100000,-0.100000)"
fill="#FFFFFF" stroke="none">
<path d="M2820 2104 c-172 -29 -195 -36 -225 -69 -25 -28 -48 -38 -140 -64
-61 -17 -126 -31 -144 -31 -17 0 -30 -4 -27 -9 3 -5 -16 -16 -42 -26 -125 -47
-192 -95 -192 -138 0 -21 -10 -27 -82 -51 -96 -31 -128 -54 -128 -90 0 -79
158 -74 428 15 82 27 97 29 123 19 42 -18 109 -6 187 32 47 23 82 33 117 33
41 1 76 14 195 72 117 57 335 143 364 143 12 0 5 -27 -23 -95 -28 -66 -32 -70
-93 -101 -35 -17 -72 -42 -82 -53 -25 -28 -26 -84 -2 -110 10 -11 15 -25 11
-32 -12 -19 -220 -113 -328 -149 -74 -24 -101 -29 -111 -21 -8 7 -56 22 -107
35 -52 13 -111 31 -131 40 -56 24 -81 21 -250 -33 -86 -28 -205 -59 -264 -70
-60 -10 -136 -24 -169 -31 -33 -6 -73 -13 -90 -16 -84 -14 -90 -20 -57 -57 17
-20 16 -20 -48 -13 -97 11 -510 17 -510 8 0 -16 -85 -50 -140 -57 -92 -11
-286 -55 -449 -101 -84 -24 -157 -44 -162 -44 -15 0 -101 -62 -106 -78 -4 -9
3 -23 16 -34 33 -26 180 -25 287 2 l79 20 16 -21 c33 -44 174 -33 343 28 60
22 72 23 94 12 40 -22 93 -14 197 31 70 29 107 40 127 36 48 -9 222 12 279 34
78 31 193 41 341 30 70 -5 139 -12 153 -16 51 -13 22 -24 -62 -24 -248 -1
-643 -95 -925 -220 -214 -95 -412 -220 -534 -338 -54 -52 -124 -140 -124 -156
0 -4 25 14 55 39 49 40 75 54 75 41 0 -2 -16 -27 -35 -56 -84 -125 -70 -223
42 -271 135 -58 472 -46 848 30 88 18 89 19 38 20 -29 0 -53 5 -53 10 0 5 24
15 53 21 67 17 331 106 366 125 45 25 7 16 -90 -20 -127 -47 -368 -119 -376
-111 -3 3 0 12 7 21 7 9 11 18 8 20 -2 2 -56 -2 -119 -11 -399 -52 -593 -31
-626 68 -41 125 156 316 494 478 51 24 93 48 93 51 0 4 -42 -11 -92 -33 -143
-62 -240 -99 -245 -94 -8 8 85 57 200 106 124 52 285 105 449 146 59 14 105
30 102 35 -3 5 -3 9 0 9 3 0 52 7 108 15 143 21 449 34 532 23 92 -12 169 -42
212 -84 33 -31 36 -38 32 -77 -7 -57 -31 -106 -80 -162 -60 -68 -91 -81 -46
-19 84 114 65 208 -57 279 -22 13 -53 28 -70 34 l-30 11 25 -18 c98 -67 149
-143 150 -219 0 -55 -59 -131 -136 -174 -64 -37 -66 -50 -2 -19 l43 21 -32
-28 c-50 -44 -135 -92 -240 -135 -99 -41 -159 -75 -149 -86 9 -8 299 139 413
211 57 35 121 79 143 98 50 43 87 110 96 177 6 46 4 57 -20 92 -16 24 -49 53
-81 71 -30 17 -55 34 -55 39 0 4 44 10 98 14 173 13 275 46 326 106 23 28 27
41 24 79 l-3 46 130 38 c104 30 153 39 247 44 l116 6 30 -64 c28 -64 88 -129
118 -129 24 0 74 29 74 44 0 14 138 169 188 211 l31 26 48 -17 c27 -9 79 -17
119 -17 59 0 82 5 129 27 63 31 70 45 10 20 -48 -20 -152 -20 -225 1 -30 8
-60 15 -67 15 -18 0 -143 -98 -183 -144 -66 -75 -98 -106 -112 -106 -24 0 -86
73 -103 119 -8 24 -15 67 -15 95 0 80 -45 137 -108 136 -14 -1 -13 -4 6 -19
12 -11 22 -22 22 -25 0 -7 -74 27 -78 36 -2 4 -10 4 -18 1 -8 -3 -14 1 -14 8
0 7 -3 10 -6 6 -7 -6 -64 19 -64 29 0 38 88 112 103 87 2 -5 3 -3 1 4 -4 19
125 75 187 80 91 9 142 -3 185 -43 46 -42 129 -84 163 -84 15 1 42 7 62 14 31
11 41 10 64 -2 19 -10 50 -13 100 -10 79 4 87 -3 27 -23 -20 -6 -61 -23 -90
-36 -59 -28 -146 -39 -216 -29 -35 6 -57 17 -86 45 -49 46 -51 63 -9 54 49
-10 32 16 -26 38 -71 27 -153 34 -230 18 -58 -11 -96 -31 -84 -44 3 -2 22 0
44 5 60 14 142 12 148 -3 2 -7 -6 -48 -19 -92 -53 -179 -53 -208 7 -298 28
-42 59 -62 59 -37 0 14 298 274 323 281 120 35 176 54 197 68 41 26 139 101
145 112 11 17 25 9 26 -13 1 -16 3 -18 6 -6 6 24 -14 92 -36 119 l-19 23 -101
-62 c-56 -34 -106 -62 -111 -62 -6 0 -10 -4 -10 -10 0 -5 -4 -10 -10 -10 -5 0
-10 9 -10 19 0 11 -5 23 -11 27 -6 3 -19 26 -29 50 -11 24 -37 63 -60 87 -45
50 -49 62 -19 54 11 -3 18 -2 16 1 -2 4 -9 21 -16 38 -13 35 -58 60 -124 70
-23 4 -62 16 -87 26 -32 14 -57 18 -86 13 -25 -3 -63 1 -100 11 -45 12 -114
17 -294 19 -129 2 -246 2 -260 -1z m836 -145 c66 -20 174 -154 174 -216 0 -46
-37 -70 -88 -57 -30 7 -38 14 -40 36 -2 14 -10 32 -19 39 -13 11 -18 9 -35
-11 -19 -24 -20 -24 -31 -5 -13 23 -31 67 -59 147 -31 86 -11 100 98 67z"/>
<path d="M1688 1993 c72 -2 192 -2 265 0 72 1 13 3 -133 3 -146 0 -205 -2
-132 -3z"/>
<path d="M2263 1993 c15 -2 37 -2 50 0 12 2 0 4 -28 4 -27 0 -38 -2 -22 -4z"/>
<path d="M3205 1660 c-3 -5 -1 -10 4 -10 6 0 11 5 11 10 0 6 -2 10 -4 10 -3 0
-8 -4 -11 -10z"/>
<path d="M3185 1636 c-31 -7 -44 -14 -35 -18 13 -6 13 -8 0 -17 -13 -9 -13
-11 3 -11 9 0 17 5 17 10 0 6 12 10 26 10 14 0 23 4 19 10 -3 6 1 10 9 10 9 0
16 5 16 10 0 6 -1 10 -2 9 -2 0 -25 -6 -53 -13z"/>
<path d="M4182 1610 c0 -14 2 -19 5 -12 2 6 2 18 0 25 -3 6 -5 1 -5 -13z"/>
<path d="M3110 1610 c0 -5 5 -10 10 -10 6 0 10 5 10 10 0 6 -4 10 -10 10 -5 0
-10 -4 -10 -10z"/>
<path d="M3197 1589 c7 -7 15 -10 18 -7 3 3 -2 9 -12 12 -14 6 -15 5 -6 -5z"/>
<path d="M4170 1566 c0 -7 -9 -26 -21 -42 l-21 -29 26 28 c23 25 35 57 21 57
-3 0 -5 -6 -5 -14z"/>
<path d="M1927 949 c228 -14 353 -75 353 -171 0 -83 -83 -189 -191 -243 -29
-15 -67 -37 -82 -48 -16 -11 -99 -55 -185 -98 -86 -44 -154 -79 -150 -79 11 0
159 65 247 109 280 138 426 274 406 377 -19 102 -178 165 -410 162 l-110 -1
122 -8z"/>
<path d="M1928 913 c7 -3 16 -2 19 1 4 3 -2 6 -13 5 -11 0 -14 -3 -6 -6z"/>
<path d="M1770 895 c-316 -47 -546 -131 -743 -272 -185 -134 -224 -232 -114
-290 48 -25 193 -29 297 -8 83 17 160 41 95 30 -58 -10 -241 -7 -287 5 -88 23
-98 67 -37 156 102 149 411 298 734 354 208 37 244 53 55 25z"/>
<path d="M2073 889 c1 -8 -38 -12 -128 -14 -154 -3 -288 -28 -443 -84 -175
-63 -299 -129 -392 -211 -28 -25 -21 -22 35 13 157 100 294 161 463 206 146
40 246 53 382 49 l115 -3 -3 -50 c-10 -141 -135 -265 -395 -391 -51 -25 -81
-42 -67 -38 42 10 241 110 309 154 178 116 247 264 163 353 -27 28 -44 35 -39
16z"/>
<path d="M1431 328 c-213 -76 -418 -97 -565 -59 -67 18 -69 18 -48 0 56 -45
204 -50 389 -13 126 25 299 76 318 95 14 14 -1 10 -94 -23z"/>
<path d="M1535 269 c-27 -10 -37 -17 -21 -14 31 7 97 33 81 33 -5 0 -32 -8
-60 -19z"/>
</g>
</svg>
